999
"DXF R12 Output" (www.mydxf.blogspot.com)
 0 
SECTION
 2 
HEADER
 9 
$ACADVER
 1 
AC1009
 9 
$EXTMIN
 10 
 0 
 20 
 0 
 9 
$EXTMAX
 10 
 8.5 
 20 
 11 
 0 
ENDSEC
 0 
SECTION
 2 
ENTITIES
0
LINE
8
Layer 1
10
71.469400
20
52.670600
11
71.469400
21
34.887300
0
LINE
8
Layer 1
10
71.469400
20
34.887300
11
78.262350
21
34.887300
0
LINE
8
Layer 1
10
78.262350
20
34.887300
11
85.055310
21
34.887300
0
LINE
8
Layer 1
10
85.055310
20
34.887300
11
85.052710
21
52.461700
0
LINE
8
Layer 1
10
85.052710
20
52.461700
11
85.050110
21
70.036200
0
LINE
8
Layer 1
10
85.050110
20
70.036200
11
78.460680
21
70.038900
0
LINE
8
Layer 1
10
78.460680
20
70.038900
11
71.871250
21
70.041600
0
LINE
8
Layer 1
10
71.871250
20
70.041600
11
71.871250
21
52.665300
0
LINE
8
Layer 1
10
71.871250
20
52.665300
11
71.871250
21
35.289000
0
LINE
8
Layer 1
10
71.871250
20
35.289000
11
78.257150
21
35.289000
0
LINE
8
Layer 1
10
78.257150
20
35.289000
11
84.643050
21
35.289000
0
LINE
8
Layer 1
10
84.643050
20
35.289000
11
84.643050
21
52.447600
0
LINE
8
Layer 1
10
84.643050
20
52.447600
11
84.636650
21
69.622900
0
LINE
8
Layer 1
10
84.636650
20
69.622900
11
78.451630
21
69.639620
0
LINE
8
Layer 1
10
78.451630
20
69.639620
11
72.273000
21
69.639620
0
LINE
8
Layer 1
10
72.273000
20
69.639620
11
72.273000
21
52.670500
0
LINE
8
Layer 1
10
72.273000
20
52.670500
11
72.273000
21
35.701400
0
LINE
8
Layer 1
10
72.273000
20
35.701400
11
78.257140
21
35.701400
0
LINE
8
Layer 1
10
78.257140
20
35.701400
11
84.241280
21
35.701400
0
LINE
8
Layer 1
10
84.241280
20
35.701400
11
84.238680
21
52.467000
0
LINE
8
Layer 1
10
84.238680
20
52.467000
11
84.236080
21
69.232600
0
LINE
8
Layer 1
10
84.236080
20
69.232600
11
78.460750
21
69.235300
0
LINE
8
Layer 1
10
78.460750
20
69.235300
11
72.685420
21
69.238000
0
LINE
8
Layer 1
10
72.685420
20
69.238000
11
72.685420
21
52.670600
0
LINE
8
Layer 1
10
72.685420
20
52.670600
11
72.685420
21
36.103100
0
LINE
8
Layer 1
10
72.685420
20
36.103100
11
78.262510
21
36.103100
0
LINE
8
Layer 1
10
78.262510
20
36.103100
11
83.839600
21
36.103100
0
LINE
8
Layer 1
10
83.839600
20
36.103100
11
83.839600
21
52.457900
0
LINE
8
Layer 1
10
83.839600
20
52.457900
11
83.822880
21
68.819100
0
LINE
8
Layer 1
10
83.822880
20
68.819100
11
78.446670
21
68.825500
0
LINE
8
Layer 1
10
78.446670
20
68.825500
11
73.087100
21
68.825500
0
LINE
8
Layer 1
10
73.087100
20
68.825500
11
73.087100
21
52.670500
0
LINE
8
Layer 1
10
73.087100
20
52.670500
11
73.087100
21
36.515500
0
LINE
8
Layer 1
10
73.087100
20
36.515500
11
78.257150
21
36.515500
0
LINE
8
Layer 1
10
78.257150
20
36.515500
11
83.427200
21
36.515500
0
LINE
8
Layer 1
10
83.427200
20
36.515500
11
83.424600
21
52.467000
0
LINE
8
Layer 1
10
83.424600
20
52.467000
11
83.422000
21
68.418500
0
LINE
8
Layer 1
10
83.422000
20
68.418500
11
78.460770
21
68.421200
0
LINE
8
Layer 1
10
78.460770
20
68.421200
11
73.499540
21
68.423900
0
LINE
8
Layer 1
10
73.499540
20
68.423900
11
73.499540
21
52.670600
0
LINE
8
Layer 1
10
73.499540
20
52.670600
11
73.499540
21
36.917200
0
LINE
8
Layer 1
10
73.499540
20
36.917200
11
78.262540
21
36.917200
0
LINE
8
Layer 1
10
78.262540
20
36.917200
11
83.025540
21
36.917200
0
LINE
8
Layer 1
10
83.025540
20
36.917200
11
83.022940
21
52.461700
0
LINE
8
Layer 1
10
83.022940
20
52.461700
11
83.020340
21
68.006200
0
LINE
8
Layer 1
10
83.020340
20
68.006200
11
78.460870
21
68.008900
0
LINE
8
Layer 1
10
78.460870
20
68.008900
11
73.901400
21
68.011600
0
LINE
8
Layer 1
10
73.901400
20
68.011600
11
73.901400
21
52.665300
0
LINE
8
Layer 1
10
73.901400
20
52.665300
11
73.901400
21
37.319000
0
LINE
8
Layer 1
10
73.901400
20
37.319000
11
78.257350
21
37.319000
0
LINE
8
Layer 1
10
78.257350
20
37.319000
11
82.613300
21
37.319000
0
LINE
8
Layer 1
10
82.613300
20
37.319000
11
82.613300
21
52.447700
0
LINE
8
Layer 1
10
82.613300
20
52.447700
11
82.606900
21
67.593100
0
LINE
8
Layer 1
10
82.606900
20
67.593100
11
78.451830
21
67.609820
0
LINE
8
Layer 1
10
78.451830
20
67.609820
11
74.302900
21
67.609820
0
LINE
8
Layer 1
10
74.302900
20
67.609820
11
74.302900
21
52.670500
0
LINE
8
Layer 1
10
74.302900
20
52.670500
11
74.302900
21
37.731300
0
LINE
8
Layer 1
10
74.302900
20
37.731300
11
78.257090
21
37.731300
0
LINE
8
Layer 1
10
78.257090
20
37.731300
11
82.211280
21
37.731300
0
LINE
8
Layer 1
10
82.211280
20
37.731300
11
82.208680
21
52.467000
0
LINE
8
Layer 1
10
82.208680
20
52.467000
11
82.206080
21
67.202700
0
LINE
8
Layer 1
10
82.206080
20
67.202700
11
78.460700
21
67.205400
0
LINE
8
Layer 1
10
78.460700
20
67.205400
11
74.715330
21
67.208100
0
LINE
8
Layer 1
10
74.715330
20
67.208100
11
74.715330
21
52.670600
0
LINE
8
Layer 1
10
74.715330
20
52.670600
11
74.715330
21
38.133100
0
LINE
8
Layer 1
10
74.715330
20
38.133100
11
78.262470
21
38.133100
0
LINE
8
Layer 1
10
78.262470
20
38.133100
11
81.809610
21
38.133100
0
LINE
8
Layer 1
10
81.809610
20
38.133100
11
81.809610
21
52.458000
0
LINE
8
Layer 1
10
81.809610
20
52.458000
11
81.792890
21
66.789300
0
LINE
8
Layer 1
10
81.792890
20
66.789300
11
78.446630
21
66.795700
0
LINE
8
Layer 1
10
78.446630
20
66.795700
11
75.117000
21
66.795700
0
LINE
8
Layer 1
10
75.117000
20
66.795700
11
75.117000
21
52.670500
0
LINE
8
Layer 1
10
75.117000
20
52.670500
11
75.117000
21
38.545400
0
LINE
8
Layer 1
10
75.117000
20
38.545400
11
78.257090
21
38.545400
0
LINE
8
Layer 1
10
78.257090
20
38.545400
11
81.397180
21
38.545400
0
LINE
8
Layer 1
10
81.397180
20
38.545400
11
81.394580
21
52.467000
0
LINE
8
Layer 1
10
81.394580
20
52.467000
11
81.391980
21
66.388600
0
LINE
8
Layer 1
10
81.391980
20
66.388600
11
78.460700
21
66.391300
0
LINE
8
Layer 1
10
78.460700
20
66.391300
11
75.529420
21
66.394000
0
LINE
8
Layer 1
10
75.529420
20
66.394000
11
75.529420
21
52.670600
0
LINE
8
Layer 1
10
75.529420
20
52.670600
11
75.529420
21
38.947200
0
LINE
8
Layer 1
10
75.529420
20
38.947200
11
78.262460
21
38.947200
0
LINE
8
Layer 1
10
78.262460
20
38.947200
11
80.995500
21
38.947200
0
LINE
8
Layer 1
10
80.995500
20
38.947200
11
80.992900
21
52.461700
0
LINE
8
Layer 1
10
80.992900
20
52.461700
11
80.990300
21
65.976200
0
LINE
8
Layer 1
10
80.990300
20
65.976200
11
78.460780
21
65.978900
0
LINE
8
Layer 1
10
78.460780
20
65.978900
11
75.931270
21
65.981600
0
LINE
8
Layer 1
10
75.931270
20
65.981600
11
75.931270
21
52.665300
0
LINE
8
Layer 1
10
75.931270
20
52.665300
11
75.931270
21
39.349000
0
LINE
8
Layer 1
10
75.931270
20
39.349000
11
78.257260
21
39.349000
0
LINE
8
Layer 1
10
78.257260
20
39.349000
11
80.583250
21
39.349000
0
LINE
8
Layer 1
10
80.583250
20
39.349000
11
80.583250
21
52.447700
0
LINE
8
Layer 1
10
80.583250
20
52.447700
11
80.576850
21
65.563100
0
LINE
8
Layer 1
10
80.576850
20
65.563100
11
78.451740
21
65.579820
0
LINE
8
Layer 1
10
78.451740
20
65.579820
11
76.332900
21
65.579820
0
LINE
8
Layer 1
10
76.332900
20
65.579820
11
76.332900
21
52.670500
0
LINE
8
Layer 1
10
76.332900
20
52.670500
11
76.332900
21
39.761300
0
LINE
8
Layer 1
10
76.332900
20
39.761300
11
78.257130
21
39.761300
0
LINE
8
Layer 1
10
78.257130
20
39.761300
11
80.181360
21
39.761300
0
LINE
8
Layer 1
10
80.181360
20
39.761300
11
80.178760
21
52.467000
0
LINE
8
Layer 1
10
80.178760
20
52.467000
11
80.176160
21
65.172700
0
LINE
8
Layer 1
10
80.176160
20
65.172700
11
78.460740
21
65.175400
0
LINE
8
Layer 1
10
78.460740
20
65.175400
11
76.745320
21
65.178100
0
LINE
8
Layer 1
10
76.745320
20
65.178100
11
76.745320
21
52.670600
0
LINE
8
Layer 1
10
76.745320
20
52.670600
11
76.745320
21
40.163100
0
LINE
8
Layer 1
10
76.745320
20
40.163100
11
78.262500
21
40.163100
0
LINE
8
Layer 1
10
78.262500
20
40.163100
11
79.779680
21
40.163100
0
LINE
8
Layer 1
10
79.779680
20
40.163100
11
79.779680
21
52.458000
0
LINE
8
Layer 1
10
79.779680
20
52.458000
11
79.762960
21
64.759300
0
LINE
8
Layer 1
10
79.762960
20
64.759300
11
78.446660
21
64.765700
0
LINE
8
Layer 1
10
78.446660
20
64.765700
11
77.147000
21
64.765700
0
LINE
8
Layer 1
10
77.147000
20
64.765700
11
77.147000
21
52.665300
0
LINE
8
Layer 1
10
77.147000
20
52.665300
11
77.147000
21
40.564800
0
LINE
8
Layer 1
10
77.147000
20
40.564800
11
77.252727
21
40.564800
0
LINE
8
Layer 1
10
77.252727
20
40.564800
11
77.358454
21
40.564800
0
LINE
8
Layer 1
10
77.358454
20
40.564800
11
77.358454
21
52.559500
0
LINE
8
Layer 1
10
77.358454
20
52.559500
11
77.358454
21
64.554200
0
LINE
8
Layer 1
10
77.358454
20
64.554200
11
78.463304
21
64.554200
0
LINE
8
Layer 1
10
78.463304
20
64.554200
11
79.568154
21
64.554200
0
LINE
8
Layer 1
10
79.568154
20
64.554200
11
79.568154
21
52.459100
0
LINE
8
Layer 1
10
79.568154
20
52.459100
11
79.568154
21
40.363900
0
LINE
8
Layer 1
10
79.568154
20
40.363900
11
78.262424
21
40.363900
0
LINE
8
Layer 1
10
78.262424
20
40.363900
11
76.956694
21
40.363900
0
LINE
8
Layer 1
10
76.956694
20
40.363900
11
76.956694
21
52.665200
0
LINE
8
Layer 1
10
76.956694
20
52.665200
11
76.956694
21
64.966500
0
LINE
8
Layer 1
10
76.956694
20
64.966500
11
78.463304
21
64.966500
0
LINE
8
Layer 1
10
78.463304
20
64.966500
11
79.969914
21
64.966500
0
LINE
8
Layer 1
10
79.969914
20
64.966500
11
79.969914
21
52.464400
0
LINE
8
Layer 1
10
79.969914
20
52.464400
11
79.969914
21
39.962200
0
LINE
8
Layer 1
10
79.969914
20
39.962200
11
78.257144
21
39.962200
0
LINE
8
Layer 1
10
78.257144
20
39.962200
11
76.544374
21
39.962200
0
LINE
8
Layer 1
10
76.544374
20
39.962200
11
76.544374
21
52.665300
0
LINE
8
Layer 1
10
76.544374
20
52.665300
11
76.544374
21
65.368400
0
LINE
8
Layer 1
10
76.544374
20
65.368400
11
78.458034
21
65.368400
0
LINE
8
Layer 1
10
78.458034
20
65.368400
11
80.371694
21
65.368400
0
LINE
8
Layer 1
10
80.371694
20
65.368400
11
80.371694
21
52.459100
0
LINE
8
Layer 1
10
80.371694
20
52.459100
11
80.371694
21
39.549800
0
LINE
8
Layer 1
10
80.371694
20
39.549800
11
78.257100
21
39.549800
0
LINE
8
Layer 1
10
78.257100
20
39.549800
11
76.142600
21
39.549800
0
LINE
8
Layer 1
10
76.142600
20
39.549800
11
76.142600
21
52.660000
0
LINE
8
Layer 1
10
76.142600
20
52.660000
11
76.142600
21
65.770100
0
LINE
8
Layer 1
10
76.142600
20
65.770100
11
78.463300
21
65.770100
0
LINE
8
Layer 1
10
78.463300
20
65.770100
11
80.784000
21
65.770100
0
LINE
8
Layer 1
10
80.784000
20
65.770100
11
80.784000
21
52.459100
0
LINE
8
Layer 1
10
80.784000
20
52.459100
11
80.784000
21
39.148100
0
LINE
8
Layer 1
10
80.784000
20
39.148100
11
78.262410
21
39.148100
0
LINE
8
Layer 1
10
78.262410
20
39.148100
11
75.740820
21
39.148100
0
LINE
8
Layer 1
10
75.740820
20
39.148100
11
75.740820
21
52.665300
0
LINE
8
Layer 1
10
75.740820
20
52.665300
11
75.740820
21
66.182500
0
LINE
8
Layer 1
10
75.740820
20
66.182500
11
78.463290
21
66.182500
0
LINE
8
Layer 1
10
78.463290
20
66.182500
11
81.185760
21
66.182500
0
LINE
8
Layer 1
10
81.185760
20
66.182500
11
81.185760
21
52.464400
0
LINE
8
Layer 1
10
81.185760
20
52.464400
11
81.185760
21
38.746300
0
LINE
8
Layer 1
10
81.185760
20
38.746300
11
78.257100
21
38.746300
0
LINE
8
Layer 1
10
78.257100
20
38.746300
11
75.328500
21
38.746300
0
LINE
8
Layer 1
10
75.328500
20
38.746300
11
75.328500
21
52.665300
0
LINE
8
Layer 1
10
75.328500
20
52.665300
11
75.328500
21
66.584200
0
LINE
8
Layer 1
10
75.328500
20
66.584200
11
78.463300
21
66.584200
0
LINE
8
Layer 1
10
78.463300
20
66.584200
11
81.598100
21
66.584200
0
LINE
8
Layer 1
10
81.598100
20
66.584200
11
81.598100
21
52.459100
0
LINE
8
Layer 1
10
81.598100
20
52.459100
11
81.598100
21
38.334000
0
LINE
8
Layer 1
10
81.598100
20
38.334000
11
78.262420
21
38.334000
0
LINE
8
Layer 1
10
78.262420
20
38.334000
11
74.926740
21
38.334000
0
LINE
8
Layer 1
10
74.926740
20
38.334000
11
74.926740
21
52.665300
0
LINE
8
Layer 1
10
74.926740
20
52.665300
11
74.926740
21
66.996600
0
LINE
8
Layer 1
10
74.926740
20
66.996600
11
78.463300
21
66.996600
0
LINE
8
Layer 1
10
78.463300
20
66.996600
11
81.999860
21
66.996600
0
LINE
8
Layer 1
10
81.999860
20
66.996600
11
81.999860
21
52.464400
0
LINE
8
Layer 1
10
81.999860
20
52.464400
11
81.999860
21
37.932200
0
LINE
8
Layer 1
10
81.999860
20
37.932200
11
78.257130
21
37.932200
0
LINE
8
Layer 1
10
78.257130
20
37.932200
11
74.514400
21
37.932200
0
LINE
8
Layer 1
10
74.514400
20
37.932200
11
74.514400
21
52.665200
0
LINE
8
Layer 1
10
74.514400
20
52.665200
11
74.514400
21
67.398200
0
LINE
8
Layer 1
10
74.514400
20
67.398200
11
78.458010
21
67.398200
0
LINE
8
Layer 1
10
78.458010
20
67.398200
11
82.401620
21
67.398200
0
LINE
8
Layer 1
10
82.401620
20
67.398200
11
82.401620
21
52.459100
0
LINE
8
Layer 1
10
82.401620
20
52.459100
11
82.401620
21
37.519900
0
LINE
8
Layer 1
10
82.401620
20
37.519900
11
78.257100
21
37.519900
0
LINE
8
Layer 1
10
78.257100
20
37.519900
11
74.112600
21
37.519900
0
LINE
8
Layer 1
10
74.112600
20
37.519900
11
74.112600
21
52.660000
0
LINE
8
Layer 1
10
74.112600
20
52.660000
11
74.112600
21
67.800100
0
LINE
8
Layer 1
10
74.112600
20
67.800100
11
78.463260
21
67.800100
0
LINE
8
Layer 1
10
78.463260
20
67.800100
11
82.813920
21
67.800100
0
LINE
8
Layer 1
10
82.813920
20
67.800100
11
82.813920
21
52.459100
0
LINE
8
Layer 1
10
82.813920
20
52.459100
11
82.813920
21
37.118100
0
LINE
8
Layer 1
10
82.813920
20
37.118100
11
78.262380
21
37.118100
0
LINE
8
Layer 1
10
78.262380
20
37.118100
11
73.710840
21
37.118100
0
LINE
8
Layer 1
10
73.710840
20
37.118100
11
73.710840
21
52.665200
0
LINE
8
Layer 1
10
73.710840
20
52.665200
11
73.710840
21
68.212300
0
LINE
8
Layer 1
10
73.710840
20
68.212300
11
78.463260
21
68.212300
0
LINE
8
Layer 1
10
78.463260
20
68.212300
11
83.215680
21
68.212300
0
LINE
8
Layer 1
10
83.215680
20
68.212300
11
83.215680
21
52.464400
0
LINE
8
Layer 1
10
83.215680
20
52.464400
11
83.215680
21
36.716400
0
LINE
8
Layer 1
10
83.215680
20
36.716400
11
78.257090
21
36.716400
0
LINE
8
Layer 1
10
78.257090
20
36.716400
11
73.298500
21
36.716400
0
LINE
8
Layer 1
10
73.298500
20
36.716400
11
73.298500
21
52.665300
0
LINE
8
Layer 1
10
73.298500
20
52.665300
11
73.298500
21
68.614200
0
LINE
8
Layer 1
10
73.298500
20
68.614200
11
78.463260
21
68.614200
0
LINE
8
Layer 1
10
78.463260
20
68.614200
11
83.628020
21
68.614200
0
LINE
8
Layer 1
10
83.628020
20
68.614200
11
83.628020
21
52.459100
0
LINE
8
Layer 1
10
83.628020
20
52.459100
11
83.628020
21
36.304000
0
LINE
8
Layer 1
10
83.628020
20
36.304000
11
78.262380
21
36.304000
0
LINE
8
Layer 1
10
78.262380
20
36.304000
11
72.896740
21
36.304000
0
LINE
8
Layer 1
10
72.896740
20
36.304000
11
72.896740
21
52.665200
0
LINE
8
Layer 1
10
72.896740
20
52.665200
11
72.896740
21
69.026400
0
LINE
8
Layer 1
10
72.896740
20
69.026400
11
78.463260
21
69.026400
0
LINE
8
Layer 1
10
78.463260
20
69.026400
11
84.029780
21
69.026400
0
LINE
8
Layer 1
10
84.029780
20
69.026400
11
84.029780
21
52.464400
0
LINE
8
Layer 1
10
84.029780
20
52.464400
11
84.029780
21
35.902300
0
LINE
8
Layer 1
10
84.029780
20
35.902300
11
78.257090
21
35.902300
0
LINE
8
Layer 1
10
78.257090
20
35.902300
11
72.484400
21
35.902300
0
LINE
8
Layer 1
10
72.484400
20
35.902300
11
72.484400
21
52.665300
0
LINE
8
Layer 1
10
72.484400
20
52.665300
11
72.484400
21
69.428300
0
LINE
8
Layer 1
10
72.484400
20
69.428300
11
78.457970
21
69.428300
0
LINE
8
Layer 1
10
78.457970
20
69.428300
11
84.431540
21
69.428300
0
LINE
8
Layer 1
10
84.431540
20
69.428300
11
84.431540
21
52.459100
0
LINE
8
Layer 1
10
84.431540
20
52.459100
11
84.431540
21
35.489900
0
LINE
8
Layer 1
10
84.431540
20
35.489900
11
78.257100
21
35.489900
0
LINE
8
Layer 1
10
78.257100
20
35.489900
11
72.082700
21
35.489900
0
LINE
8
Layer 1
10
72.082700
20
35.489900
11
72.082700
21
52.660000
0
LINE
8
Layer 1
10
72.082700
20
52.660000
11
72.082700
21
69.830000
0
LINE
8
Layer 1
10
72.082700
20
69.830000
11
78.463320
21
69.830000
0
LINE
8
Layer 1
10
78.463320
20
69.830000
11
84.843940
21
69.830000
0
LINE
8
Layer 1
10
84.843940
20
69.830000
11
84.843940
21
52.459100
0
LINE
8
Layer 1
10
84.843940
20
52.459100
11
84.843940
21
35.088200
0
LINE
8
Layer 1
10
84.843940
20
35.088200
11
78.262400
21
35.088200
0
LINE
8
Layer 1
10
78.262400
20
35.088200
11
71.680900
21
35.088200
0
LINE
8
Layer 1
10
71.680900
20
35.088200
11
71.680900
21
52.665300
0
LINE
8
Layer 1
10
71.680900
20
52.665300
11
71.680900
21
70.242400
0
LINE
8
Layer 1
10
71.680900
20
70.242400
11
78.463280
21
70.242400
0
LINE
8
Layer 1
10
78.463280
20
70.242400
11
85.245660
21
70.242400
0
LINE
8
Layer 1
10
85.245660
20
70.242400
11
85.245660
21
52.464400
0
LINE
8
Layer 1
10
85.245660
20
52.464400
11
85.245660
21
34.686400
0
LINE
8
Layer 1
10
85.245660
20
34.686400
11
78.357500
21
34.686400
0
LINE
8
Layer 1
10
78.357500
20
34.686400
11
71.469400
21
34.686400
0
LINE
8
Layer 1
10
71.469400
20
34.686400
11
71.469400
21
34.586000
0
LINE
8
Layer 1
10
71.469400
20
34.586000
11
71.469400
21
34.485500
0
LINE
8
Layer 1
10
71.469400
20
34.485500
11
78.463230
21
34.485500
0
LINE
8
Layer 1
10
78.463230
20
34.485500
11
85.457070
21
34.485500
0
LINE
8
Layer 1
10
85.457070
20
34.485500
11
85.454470
21
52.467000
0
LINE
8
Layer 1
10
85.454470
20
52.467000
11
85.451870
21
70.448500
0
LINE
8
Layer 1
10
85.451870
20
70.448500
11
78.460680
21
70.451200
0
LINE
8
Layer 1
10
78.460680
20
70.451200
11
71.469490
21
70.453900
0
LINE
8
Layer 1
10
71.469490
20
70.453900
11
71.469400
21
52.670600
 0 
ENDSEC
 0 
EOF